<?xml version="1.0" encoding="utf-8"?>
<!-- Generator: Adobe Illustrator 23.0.6, SVG Export Plug-In . SVG Version: 6.00 Build 0)  -->
<svg version="1.1" id="Layer_1" xmlns="http://www.w3.org/2000/svg" xmlns:xlink="http://www.w3.org/1999/xlink" x="0px" y="0px"
	 viewBox="0 0 1084 234" style="enable-background:new 0 0 1084 234;" xml:space="preserve">
<style type="text/css">
	.st0{fill:#00D665;}
	.st1{font-family:'CarlMarx-Regular';}
	.st2{font-size:48px;}
	.st3{letter-spacing:11;}
	.st4{fill:#0A1623;}
</style>
<g>
	<path d="M549.86,94.25H287.54c-9.05,0-16.39-7.34-16.39-16.39V63.45c0-9.05,7.34-16.39,16.39-16.39h262.32
		c9.05,0,16.39,7.34,16.39,16.39v14.41C566.25,86.91,558.91,94.25,549.86,94.25z"/>
	<text transform="matrix(0.9999 -0.0127 0.0127 0.9999 305.1203 85.1626)" class="st0 st1 st2 st3">awesome</text>
</g>
<g id="Name">
	<g id="Crypto_15_">
		<g>
			<path id="XMLID_325_" class="st4" d="M307.61,184.2c-11.37,0-20.26-3.34-26.83-10.02s-9.77-15.53-9.77-26.56
				c0-11.76,3.64-21.34,10.93-28.59c7.29-7.26,16.77-11.03,28.43-11.03c7.29,0,13.27,0.87,18.22,2.76v15.97
				c-4.96-2.9-10.64-4.35-16.91-4.35c-7,0-12.54,2.18-16.77,6.53c-4.23,4.35-6.41,10.31-6.41,17.71c0,7.11,2.04,12.77,5.98,16.98
				c4.08,4.21,9.48,6.39,16.18,6.39c6.56,0,12.39-1.6,17.79-4.79v15.1C328.46,180.28,316.36,184.2,307.61,184.2z"/>
			<path class="st4" d="M307.61,184.92c-11.47,0-20.67-3.44-27.35-10.23c-6.62-6.74-9.98-15.85-9.98-27.07
				c0-11.95,3.75-21.74,11.15-29.11c7.49-7.46,17.23-11.24,28.94-11.24c7.48,0,13.52,0.92,18.48,2.81l0.47,0.18v17.74l-1.1-0.64
				c-4.82-2.82-10.38-4.25-16.54-4.25c-6.81,0-12.12,2.06-16.24,6.31c-4.12,4.25-6.21,10.03-6.21,17.21
				c0,6.84,1.95,12.39,5.78,16.49c3.96,4.08,9.23,6.15,15.65,6.15c6.39,0,12.09-1.53,17.41-4.69l1.1-0.65v16.9l-0.5,0.16
				C328.18,181.13,316.37,184.92,307.61,184.92z M310.38,108.72c-11.31,0-20.7,3.64-27.91,10.82c-7.11,7.08-10.72,16.53-10.72,28.08
				c0,10.83,3.22,19.6,9.56,26.05c6.48,6.59,15.08,9.8,26.3,9.8c7.53,0,17.75-3,20.12-3.72v-13.31c-5.24,2.87-10.83,4.26-17.06,4.26
				c-6.83,0-12.45-2.22-16.71-6.61c-4.1-4.39-6.18-10.27-6.18-17.49c0-7.56,2.23-13.69,6.62-18.21c4.35-4.48,10.17-6.75,17.29-6.75
				c5.96,0,11.4,1.29,16.18,3.84v-14.22C323.17,109.55,317.44,108.72,310.38,108.72z"/>
		</g>
		<g>
			<path id="XMLID_324_" class="st4" d="M374.52,144.86c-1.9-1.02-4.23-1.6-6.85-1.6c-3.5,0-6.27,1.31-8.31,3.92
				c-2.04,2.61-3.06,6.1-3.06,10.6v25.11h-16.33V130.2h16.33v9.73h0.15c2.62-7.11,7.29-10.74,14-10.74c1.75,0,3.06,0.15,4.08,0.58
				L374.52,144.86L374.52,144.86z"/>
			<path class="st4" d="M357.03,183.62h-17.79v-54.14h17.79v7.32c2.89-5.53,7.39-8.34,13.41-8.34c2.01,0,3.32,0.19,4.37,0.64
				l0.44,0.19v16.79l-1.07-0.57c-1.84-0.99-4.09-1.51-6.51-1.51c-3.29,0-5.82,1.19-7.74,3.64c-1.96,2.51-2.91,5.83-2.91,10.15
				V183.62z M340.7,182.16h14.87v-24.38c0-4.66,1.05-8.27,3.22-11.04c2.18-2.79,5.16-4.2,8.88-4.2c2.21,0,4.3,0.4,6.12,1.17v-13.44
				c-0.8-0.25-1.86-0.36-3.35-0.36c-6.41,0-10.76,3.36-13.31,10.26l-0.18,0.48h-1.38v-9.72H340.7V182.16z"/>
		</g>
		<g>
			<path id="XMLID_323_" class="st4" d="M436.63,130.2l-21.43,56.75c-5.1,13.64-12.98,20.47-23.33,20.47
				c-3.94,0-7.14-0.44-9.77-1.31V193.2c2.19,1.31,4.52,1.89,7,1.89c4.23,0,7.14-2.03,8.75-5.95l2.77-6.53l-21.43-52.54h18.22
				l9.91,31.93c0.58,2.03,1.17,4.35,1.46,6.97h0.15c0.29-2.03,0.87-4.35,1.75-6.97l9.91-32.08h16.04V130.2z"/>
			<path class="st4" d="M391.87,208.15c-4,0-7.27-0.44-10-1.34l-0.5-0.16v-14.72l1.1,0.66c2.01,1.2,4.17,1.78,6.62,1.78
				c3.92,0,6.56-1.8,8.07-5.5l2.66-6.26l-21.72-53.27h19.84l10.07,32.44c0.29,1.02,0.62,2.22,0.9,3.56
				c0.29-1.13,0.64-2.32,1.06-3.57l10.07-32.58h17.3l-0.05,1.27l-21.43,56.75C410.69,201.1,402.61,208.15,391.87,208.15z
				 M382.84,205.58c2.48,0.75,5.44,1.11,9.04,1.11c10.06,0,17.68-6.73,22.64-19.99l21.17-56.07h-14.56l-9.75,31.57
				c-0.86,2.57-1.44,4.87-1.72,6.86l-0.09,0.62h-1.43l-0.07-0.65c-0.3-2.69-0.92-5.07-1.43-6.85l-9.75-31.4h-16.6l21.14,51.82
				l-2.89,6.81c-1.73,4.24-4.9,6.39-9.42,6.39c-2.28,0-4.34-0.46-6.27-1.39V205.58z"/>
		</g>
		<g>
			<path id="XMLID_322_" class="st4" d="M459.67,176.79h-0.15v30.34h-16.33V130.2h16.33v7.84h0.15c4.08-6.1,9.62-9.14,16.91-9.14
				c6.85,0,12.1,2.32,15.89,6.97s5.54,11.03,5.54,19.01c0,8.71-2.19,15.82-6.56,21.05c-4.37,5.37-10.21,7.98-17.35,7.98
				C467.98,184.05,463.02,181.58,459.67,176.79z M459.23,155.17v4.21c0,3.63,1.02,6.53,2.92,8.85c1.9,2.32,4.52,3.48,7.58,3.48
				c3.64,0,6.56-1.45,8.6-4.35s3.06-6.97,3.06-12.19c0-9.29-3.64-13.93-10.79-13.93c-3.35,0-6.12,1.31-8.16,3.77
				C460.39,147.62,459.23,150.96,459.23,155.17z"/>
			<path class="st4" d="M460.25,207.86h-17.79v-78.38h17.79v6.52c4.12-5.26,9.48-7.83,16.33-7.83c7,0,12.54,2.43,16.46,7.24
				c3.84,4.7,5.7,11.07,5.7,19.47c0,8.94-2.27,16.18-6.73,21.51c-4.45,5.47-10.48,8.25-17.91,8.25c-5.64,0.14-10.4-1.9-13.85-5.9
				V207.86z M443.92,206.4h14.87v-30.34h1.26l0.22,0.31c3.21,4.59,8,6.9,13.82,6.8c6.98,0,12.63-2.6,16.8-7.72
				c4.25-5.07,6.4-12,6.4-20.59c0-8.05-1.76-14.12-5.38-18.56c-3.68-4.51-8.69-6.7-15.33-6.7c-7,0-12.33,2.89-16.3,8.82l-0.22,0.32
				h-1.27v-7.84h-14.87V206.4z M469.72,172.44c-3.33,0-6.14-1.3-8.15-3.75c-2.04-2.5-3.08-5.64-3.08-9.31v-4.21
				c0-4.18,1.13-7.75,3.36-10.61c2.2-2.66,5.21-4.05,8.74-4.05c7.64,0,11.52,4.93,11.52,14.66c0,5.35-1.07,9.59-3.19,12.61
				C476.75,170.87,473.65,172.44,469.72,172.44z M470.6,141.96c-3.12,0-5.67,1.18-7.6,3.51c-2.01,2.58-3.04,5.85-3.04,9.7v4.21
				c0,3.38,0.9,6.13,2.75,8.4c1.72,2.1,4.14,3.21,7.01,3.21c3.43,0,6.12-1.36,8-4.04c1.94-2.77,2.93-6.73,2.93-11.78
				C480.66,146.28,477.37,141.96,470.6,141.96z"/>
		</g>
		<g>
			<path id="XMLID_321_" class="st4" d="M529.79,184.05c-11.52,0-17.2-5.95-17.2-17.85v-23.95h-8.6v-11.9h8.6v-11.32l16.18-4.64
				v15.97h11.81v11.9h-11.81v21.34c0,5.52,2.19,8.27,6.56,8.27c1.75,0,3.5-0.44,5.25-1.45v11.76
				C540.58,182.16,534.75,184.05,529.79,184.05z"/>
			<path class="st4" d="M529.79,184.78c-11.9,0-17.93-6.25-17.93-18.58v-23.22h-8.6v-13.36h8.6v-11.14l17.64-5.06v16.2h11.81v13.36
				H529.5v20.61c0,5.15,1.85,7.55,5.83,7.55c1.72,0,3.32-0.44,4.88-1.35l1.1-0.64v13.55l-0.5,0.16
				C540.56,182.93,534.8,184.78,529.79,184.78z M504.71,141.52h8.6v24.68c0,11.52,5.39,17.13,16.47,17.13
				c3.96,0,8.56-1.25,10.06-1.7V171.6c-1.45,0.65-2.96,0.99-4.52,0.99c-3.33,0-7.29-1.56-7.29-9v-22.06h11.81v-10.45h-11.81v-15.73
				l-14.72,4.23v11.5h-8.6V141.52z"/>
		</g>
		<g>
			<path id="XMLID_320_" class="st4" d="M574.69,184.05c-8.75,0-15.75-2.47-20.7-7.4c-5.1-4.94-7.58-11.61-7.58-20.03
				c0-8.71,2.62-15.53,7.87-20.47c5.25-4.94,12.25-7.4,21.14-7.4c8.75,0,15.6,2.47,20.7,7.4c4.96,4.94,7.44,11.47,7.44,19.45
				c0,8.71-2.62,15.68-7.73,20.76S583.59,184.05,574.69,184.05z M574.98,141.38c-3.79,0-6.85,1.31-9.04,3.92
				c-2.19,2.61-3.21,6.39-3.21,11.18c0,10.16,4.08,15.1,12.25,15.1c7.87,0,11.66-5.23,11.66-15.53
				C586.79,146.31,582.86,141.38,574.98,141.38z"/>
			<path class="st4" d="M574.69,184.78c-9,0-16.14-2.56-21.22-7.62c-5.17-5-7.8-11.91-7.8-20.54c0-8.87,2.73-15.94,8.1-20.99
				c5.36-5.04,12.64-7.6,21.64-7.6c8.85,0,15.99,2.56,21.21,7.61c5.08,5.06,7.66,11.78,7.66,19.97c0,8.87-2.67,16.02-7.94,21.27
				C591.08,182.12,583.79,184.78,574.69,184.78z M575.42,129.48c-8.73,0-15.48,2.36-20.64,7.2c-5.07,4.77-7.64,11.48-7.64,19.94
				c0,8.34,2.41,14.72,7.36,19.51c4.8,4.78,11.59,7.2,20.19,7.2c8.7,0,15.64-2.52,20.62-7.48c4.99-4.96,7.51-11.77,7.51-20.24
				c0-7.79-2.43-14.16-7.22-18.94C590.61,131.83,584,129.48,575.42,129.48z M574.98,172.29c-8.61,0-12.98-5.32-12.98-15.82
				c0-5.05,1.14-8.96,3.38-11.64c2.32-2.77,5.55-4.18,9.6-4.18c3.7,0,6.62,1.06,8.69,3.15c2.54,2.56,3.78,6.68,3.7,12.24
				C587.38,166.83,583.21,172.29,574.98,172.29z M574.98,142.1c-3.59,0-6.45,1.23-8.48,3.66c-2.02,2.41-3.04,6.01-3.04,10.71
				c0,9.67,3.77,14.37,11.52,14.37c7.36,0,10.93-4.84,10.93-14.81c0.08-5.17-1.03-8.94-3.28-11.22
				C580.85,143.02,578.28,142.1,574.98,142.1z"/>
		</g>
	</g>
	<g id="Compare_15_">
		<path id="XMLID_319_" class="st0" d="M675.58,180.5c-5.39,2.61-12.39,3.92-21.14,3.92c-11.37,0-20.26-3.34-26.82-10.02
			c-6.56-6.68-9.77-15.53-9.77-26.56c0-11.76,3.64-21.34,10.93-28.74s16.77-11.03,28.43-11.03c7.29,0,13.27,0.87,18.22,2.76v15.97
			c-4.96-2.9-10.64-4.35-16.91-4.35c-7,0-12.54,2.18-16.77,6.53c-4.23,4.35-6.41,10.31-6.41,17.71c0,7.11,2.04,12.77,5.98,16.98
			c4.08,4.21,9.48,6.39,16.33,6.39c6.56,0,12.39-1.6,17.93-4.79V180.5z"/>
		<path id="XMLID_318_" class="st0" d="M712.17,184.41c-8.75,0-15.75-2.47-20.85-7.4c-5.1-4.94-7.58-11.61-7.58-20.03
			c0-8.71,2.62-15.53,7.87-20.47c5.25-4.94,12.25-7.4,21.29-7.4c8.75,0,15.6,2.47,20.7,7.4c4.96,4.94,7.44,11.47,7.44,19.45
			c0,8.71-2.62,15.68-7.73,20.76C728.06,181.95,721.06,184.41,712.17,184.41z M712.61,141.74c-3.79,0-6.85,1.31-9.04,3.92
			c-2.19,2.61-3.21,6.39-3.21,11.18c0,10.16,4.08,15.1,12.25,15.1c7.87,0,11.66-5.23,11.66-15.53
			C724.42,146.68,720.48,141.74,712.61,141.74z"/>
		<path id="XMLID_317_" class="st0" d="M835.51,183.11h-16.33v-29.9c0-7.69-2.77-11.47-8.46-11.47c-2.62,0-4.81,1.16-6.56,3.48
			c-1.75,2.32-2.48,5.23-2.48,8.56v29.47h-16.33v-30.34c0-7.4-2.77-11.18-8.31-11.18c-2.77,0-4.96,1.16-6.71,3.34
			c-1.6,2.18-2.48,5.23-2.48,9v29.18h-16.33v-52.69h16.33v8.27h0.15c1.75-2.76,4.08-5.08,7.14-6.82c3.06-1.74,6.41-2.61,10.06-2.61
			c7.44,0,12.54,3.34,15.31,9.87c4.08-6.53,9.91-9.87,17.79-9.87c11.52,0,17.2,7.11,17.2,21.19L835.51,183.11L835.51,183.11z"/>
		<path id="XMLID_316_" class="st0" d="M864.96,177.01h-0.15v30.34h-16.33v-76.78h16.33v7.98h0.15c4.08-6.1,9.62-9.14,16.91-9.14
			c6.85,0,12.1,2.32,15.89,6.97c3.79,4.64,5.54,11.03,5.54,19.16c0,8.71-2.19,15.82-6.56,21.19c-4.37,5.37-10.21,7.98-17.35,7.98
			C873.12,184.41,868.31,181.95,864.96,177.01z M864.52,155.53v4.21c0,3.63,1.02,6.53,2.92,8.85s4.52,3.48,7.58,3.48
			c3.64,0,6.56-1.45,8.6-4.35c2.04-2.9,3.06-6.97,3.06-12.19c0-9.29-3.64-13.93-10.79-13.93c-3.35,0-6.12,1.31-8.16,3.77
			C865.54,147.98,864.52,151.32,864.52,155.53z"/>
		<path id="XMLID_315_" class="st0" d="M956.95,183.11h-15.45v-7.55h-0.29c-3.5,5.95-8.75,8.85-15.75,8.85
			c-5.1,0-9.18-1.45-12.1-4.35c-2.92-2.9-4.37-6.82-4.37-11.61c0-10.16,6.12-16.11,18.22-17.71l14.29-1.89
			c0-5.81-3.06-8.56-9.33-8.56c-6.27,0-12.25,1.89-17.93,5.66v-12.19c2.33-1.16,5.39-2.18,9.33-3.05s7.58-1.31,10.79-1.31
			c15.02,0,22.6,7.55,22.6,22.5L956.95,183.11L956.95,183.11z M941.64,161.77v-3.48l-9.62,1.16c-5.25,0.73-8.02,3.05-8.02,7.11
			c0,1.89,0.58,3.34,1.9,4.5c1.31,1.16,3.06,1.74,5.25,1.74c3.06,0,5.54-1.02,7.44-3.19C940.62,167.72,941.64,164.96,941.64,161.77z
			"/>
		<path id="XMLID_314_" class="st0" d="M1004.33,145.22c-1.9-1.02-4.23-1.6-6.85-1.6c-3.5,0-6.27,1.31-8.31,3.92
			s-3.06,6.1-3.06,10.6v25.11h-16.33v-52.69h16.33v9.73h0.15c2.62-7.11,7.29-10.74,14-10.74c1.75,0,3.06,0.15,4.08,0.58
			L1004.33,145.22L1004.33,145.22z"/>
		<path id="XMLID_313_" class="st0" d="M1059,161.48h-34.55c0.58,7.69,5.39,11.47,14.43,11.47c5.83,0,10.93-1.31,15.31-4.06v11.76
			c-4.96,2.61-11.23,3.92-19.1,3.92c-8.6,0-15.16-2.32-19.83-7.11c-4.67-4.64-7.14-11.32-7.14-19.74c0-8.71,2.48-15.68,7.58-20.76
			c5.1-5.08,11.37-7.69,18.81-7.69c7.73,0,13.7,2.32,17.93,6.82c4.23,4.5,6.27,10.74,6.27,18.58v6.82H1059z M1043.84,151.47
			c0-7.55-3.06-11.32-9.18-11.32c-2.62,0-4.81,1.02-6.85,3.19c-1.9,2.18-3.06,4.79-3.5,8.13H1043.84z"/>
	</g>
</g>
<g id="Logo_17_">
	<polyline id="Bar_Left_37_" class="st4" points="97.56,167.05 97.56,147.67 117.81,127.5 117.81,167.05 	"/>
	<polyline id="Bar_Middle_37_" class="st4" points="126.99,167.05 126.99,140.26 136.8,147.35 148.98,137.11 148.98,167.05 	"/>
	<polyline id="Bar_Right_37_" class="st4" points="157.05,167.05 180.31,167.05 180.31,109.7 157.05,130.18 	"/>
	<path id="Arrow_37_" class="st0" d="M96.45,137.11l-4.75-5.51l26.27-25.05l18.83,17.8l33.23-30.09l-5.54-6.62l23.42-5.36
		l-4.59,22.53l-6.65-4.73l-39.88,38.28l-18.83-16.07l-1.9-1.73c0,0-17.41,17.8-18.51,17.17"/>
	<path class="st0" d="M164.77,202.44l-4.35-15.97c33.81-9.13,62.88-28.82,75.85-51.4c6.69-11.65,8.7-23.37,5.81-33.9
		c-4.12-15.01-17.75-26.79-38.38-33.15c-21.95-6.78-48.76-6.54-75.49,0.67l-4.35-15.97c29.73-8.02,59.84-8.2,84.76-0.51
		c26.24,8.1,43.81,23.94,49.48,44.59c4.08,14.86,1.52,30.93-7.41,46.48C235.38,169.94,203.26,192.06,164.77,202.44z"/>
	<path class="st4" d="M111.89,211.43c-14.02,0-27.45-1.88-39.64-5.64c-26.24-8.1-43.81-23.94-49.48-44.59
		c-4.08-14.86-1.52-30.93,7.41-46.48c15.31-26.66,47.44-48.77,85.93-59.16l4.35,15.97c-33.81,9.13-62.88,28.82-75.85,51.41
		c-6.69,11.65-8.7,23.37-5.81,33.9c4.12,15.01,17.75,26.79,38.38,33.15c21.95,6.78,48.76,6.54,75.49-0.67l4.35,15.97
		C141.82,209.38,126.53,211.43,111.89,211.43z"/>
</g>
</svg>
